<?xml version="1.0" encoding="UTF-8" standalone="no"?>
<!-- Generator: Adobe Illustrator 15.0.0, SVG Export Plug-In . SVG Version: 6.00 Build 0)  -->

<svg
   xmlns:dc="http://purl.org/dc/elements/1.1/"
   xmlns:cc="http://creativecommons.org/ns#"
   xmlns:rdf="http://www.w3.org/1999/02/22-rdf-syntax-ns#"
   xmlns:svg="http://www.w3.org/2000/svg"
   xmlns="http://www.w3.org/2000/svg"
   xmlns:xlink="http://www.w3.org/1999/xlink"
   xmlns:sodipodi="http://sodipodi.sourceforge.net/DTD/sodipodi-0.dtd"
   xmlns:inkscape="http://www.inkscape.org/namespaces/inkscape"
   version="1.1"
   id="Layer_1"
   x="0px"
   y="0px"
   width="0.40000001in"
   height="0.40000001in"
   viewBox="0 0 36 36.000003"
   enable-background="new 0 0 103.711 97.838"
   xml:space="preserve"
   inkscape:version="0.91 r13725"
   sodipodi:docname="info.svg"
   inkscape:export-filename="/home/twease/alarm_clock_docs/images/info.png"
   inkscape:export-xdpi="200"
   inkscape:export-ydpi="200"><metadata
     id="metadata48"><rdf:RDF><cc:Work
         rdf:about=""><dc:format>image/svg+xml</dc:format><dc:type
           rdf:resource="http://purl.org/dc/dcmitype/StillImage" /><dc:title></dc:title></cc:Work></rdf:RDF></metadata><defs
     id="defs46" /><sodipodi:namedview
     pagecolor="#ffffff"
     bordercolor="#666666"
     borderopacity="1"
     objecttolerance="10"
     gridtolerance="10"
     guidetolerance="10"
     inkscape:pageopacity="0"
     inkscape:pageshadow="2"
     inkscape:window-width="1626"
     inkscape:window-height="910"
     id="namedview44"
     showgrid="false"
     units="in"
     inkscape:document-units="in"
     inkscape:zoom="6.8225926"
     inkscape:cx="51.855499"
     inkscape:cy="48.918999"
     inkscape:window-x="75"
     inkscape:window-y="34"
     inkscape:window-maximized="0"
     inkscape:current-layer="Layer_1" /><g
     id="Layer_1_1_"
     transform="translate(0,-61.838002)" /><g
     id="Layer_3"
     transform="translate(0,-61.838002)" /><g
     id="g4201"
     transform="matrix(0.5463871,0,0,0.5463871,-10.487531,-8.8841618)"><g
       id="Layer_2"><g
         id="g5"><g
           id="g7"><g
             id="g9"><defs
               id="defs11"><rect
                 height="55.096001"
                 width="55.097"
                 y="21.657"
                 x="24.591"
                 id="SVGID_1_" /></defs><clipPath
               id="SVGID_2_"><use
                 id="use15"
                 overflow="visible"
                 xlink:href="#SVGID_1_"
                 style="overflow:visible"
                 x="0"
                 y="0"
                 width="100%"
                 height="100%" /></clipPath><path
               id="path17"
               d="m 28.732,22.556 c 0,0 -3.24,0 -3.24,3.24 l 0,46.815 c 0,0 0,3.239 3.24,3.239 l 46.815,0 c 0,0 3.237,0 3.237,-3.239 l 0,-46.814 c 0,0 0,-3.24 -3.237,-3.24 l -46.815,-10e-4 0,0 z"
               clip-path="url(#SVGID_2_)"
               inkscape:connector-curvature="0"
               style="fill:none;stroke:#000000;stroke-width:1.79999995" /></g></g></g></g><g
       id="g20"><defs
         id="defs22"><rect
           height="39.828999"
           width="18.257999"
           y="29.572001"
           x="43.011002"
           id="SVGID_3_" /></defs><clipPath
         id="SVGID_4_"><use
           id="use26"
           overflow="visible"
           xlink:href="#SVGID_3_"
           style="overflow:visible"
           x="0"
           y="0"
           width="100%"
           height="100%" /></clipPath><path
         id="path28"
         d="m 52.056,31.033 c -2.753,0 -4.888,2.136 -4.888,4.889 0,2.752 2.135,4.887 4.888,4.887 2.752,0 4.887,-2.135 4.887,-4.887 -10e-4,-2.753 -2.135,-4.889 -4.887,-4.889 m 4.886,12.078 -13.93,0 0,4.494 2.584,0 c 1.629,0 2.021,0.843 2.021,2.415 l 0,12.471 c 0,1.573 -0.393,2.416 -2.021,2.416 l -2.416,0 0,4.494 18.088,0 0,-4.494 -2.304,0 c -1.629,0 -2.021,-0.843 -2.021,-2.416 l 0,-19.38 z"
         clip-path="url(#SVGID_4_)"
         inkscape:connector-curvature="0"
         style="fill:#231f20" /><path
         id="path30"
         d="m 52.171,41.166 c 3.201,0 5.797,-2.595 5.797,-5.797 0,-3.202 -2.596,-5.797 -5.797,-5.797 -3.203,0 -5.798,2.595 -5.798,5.797 0,3.202 2.595,5.797 5.798,5.797"
         clip-path="url(#SVGID_4_)"
         inkscape:connector-curvature="0"
         style="fill:#ffffff" /></g><g
       id="g32"><defs
         id="defs34"><rect
           height="11.594"
           width="11.595"
           y="29.865999"
           x="46.194"
           id="SVGID_5_" /></defs><clipPath
         id="SVGID_6_"><use
           id="use38"
           overflow="visible"
           xlink:href="#SVGID_5_"
           style="overflow:visible"
           x="0"
           y="0"
           width="100%"
           height="100%" /></clipPath><path
         id="path40"
         d="m 51.992,41.46 c 3.202,0 5.797,-2.595 5.797,-5.797 0,-3.202 -2.596,-5.797 -5.797,-5.797 -3.202,0 -5.797,2.595 -5.797,5.797 0,3.202 2.595,5.797 5.797,5.797"
         clip-path="url(#SVGID_6_)"
         inkscape:connector-curvature="0"
         style="fill:#ffffff" /><path
         id="path42"
         d="m 51.992,40.704 c 2.784,0 5.042,-2.258 5.042,-5.042 0,-2.783 -2.258,-5.04 -5.042,-5.04 -2.784,0 -5.041,2.257 -5.041,5.04 0,2.784 2.257,5.042 5.041,5.042"
         clip-path="url(#SVGID_6_)"
         inkscape:connector-curvature="0"
         style="fill:#231f20" /></g></g></svg>